<svg width="980" height="380" viewBox="0 0 980 380" fill="none" xmlns="http://www.w3.org/2000/svg">
<path d="M242.172 139.675C239.068 136.876 235.46 134.693 231.542 133.241L56.0696 68.2154C37.3365 61.2733 16.7984 72.5336 15.8686 92.49C13.9617 133.421 21.5139 179.075 37.1381 212.696C57.7761 257.107 78.1058 290.945 121.545 313.557C164.984 336.168 214.681 343.782 262.898 335.212C306.167 327.521 346.066 307.184 377.637 276.933C382.093 272.663 381.788 265.547 377.204 261.414L242.172 139.675Z" fill="url(#paint0_linear_1_34)"/>
<path d="M737.782 139.675C740.886 136.876 744.493 134.693 748.412 133.241L923.883 68.2154C942.617 61.2733 963.155 72.5336 964.084 92.49C965.991 133.421 958.439 179.075 942.815 212.696C922.177 257.107 901.847 290.945 858.408 313.557C814.969 336.168 765.272 343.782 717.056 335.212C673.786 327.521 633.888 307.184 602.316 276.933C597.86 272.663 598.165 265.547 602.749 261.414L737.782 139.675Z" fill="url(#paint1_linear_1_34)"/>
<defs>
<linearGradient id="paint0_linear_1_34" x1="169.149" y1="67.1081" x2="388.719" y2="265.526" gradientUnits="userSpaceOnUse">
<stop stop-color="#FFD492"/>
<stop offset="0.56" stop-color="#FFD18B"/>
<stop offset="1" stop-color="#F2B457"/>
</linearGradient>
<linearGradient id="paint1_linear_1_34" x1="810.804" y1="67.1081" x2="591.235" y2="265.526" gradientUnits="userSpaceOnUse">
<stop stop-color="#FFD492"/>
<stop offset="0.56" stop-color="#FFD18B"/>
<stop offset="1" stop-color="#F2B457"/>
</linearGradient>
</defs>
</svg>
