<svg width="440" height="400" viewBox="0 0 440 400" fill="none" xmlns="http://www.w3.org/2000/svg">
<path d="M297.115 19.802C304.734 1.36851 326.911 -6.08466 342.192 6.73466C373.192 32.7411 400.886 68.5305 415.009 102.758C433.689 148.027 447.056 188.022 434.255 235.292C421.453 282.561 393.38 324.27 354.408 353.925C315.436 383.581 267.752 399.518 218.781 399.254C169.81 398.991 122.3 382.543 83.6489 352.47C44.998 322.398 17.3755 280.389 5.08237 232.985C-7.21073 185.581 4.30866 147.824 23.4741 102.758C37.9835 68.6401 66.8346 32.461 98.5117 6.46976C113.956 -6.20258 136.072 1.5116 143.46 20.0734L216.046 202.447C217.042 204.95 220.577 204.973 221.606 202.483L297.115 19.802Z" fill="url(#paint0_linear_1_12)"/>
<defs>
<linearGradient id="paint0_linear_1_12" x1="220" y1="103.318" x2="219.656" y2="399.258" gradientUnits="userSpaceOnUse">
<stop stop-color="#FFD492"/>
<stop offset="0.56" stop-color="#FFD18B"/>
<stop offset="1" stop-color="#F2B457"/>
</linearGradient>
</defs>
</svg>
